<?xml version="1.0" encoding="utf-8"?>
<!-- Generator: Adobe Illustrator 18.1.1, SVG Export Plug-In . SVG Version: 6.00 Build 0)  -->
<svg version="1.1" id="Layer_1" xmlns="http://www.w3.org/2000/svg" xmlns:xlink="http://www.w3.org/1999/xlink" x="0px" y="0px"
	 viewBox="0 0 250 250" enable-background="new 0 0 250 250" xml:space="preserve">
<g>
	<path d="M98.3,62.2c0,0,1.6-15.2-2.2-22.6c-3.8-7.4,3.7,2.1,3.7,2.1s2.5-10.3,0.9-15c-1.5-4.7,6.1,10.9,6.1,10.9s1.5-6.9,0.6-11.2
		c-1-5.1,4.8,5.7,7.1,14.5S98.3,62.2,98.3,62.2z"/>
	<path d="M27.5,136.4c-2.5,50.5,41,91.6,91.6,91.6s91.6-41,91.6-91.6c0,0-0.5-40.2-24.1-61.8C166.3,56,156,59.5,133,46
		c-8.8-5.2-20.2-26.2-20.2-26.2s-0.6,15.3-6.7,20.5c-6.2,5.1-25.7,14.4-41,27.2S29.6,95.6,27.5,136.4z"/>
	<g>
		<path fill="#FFFFFF" d="M31.5,136.8C29,186,71.5,226,120.8,226s89.2-40,89.2-89.2c0,0-0.5-39.1-23.5-60.2
			C166.8,58.4,155.4,59.1,133,46c-8.6-5-18.5-21.5-18.5-21.5S114,38,108,43S83,57,68,69.5S33.5,97,31.5,136.8z"/>
		<path d="M32,136.8c0,4.6,0.1,9.1,0.6,13.6c0.6,4.5,1.6,8.9,2.8,13.2c2.6,8.6,6.7,16.9,12,24.2c2.6,3.7,5.6,7.1,8.7,10.3
			c3.2,3.2,6.6,6.2,10.2,8.9c3.6,2.7,7.4,5.1,11.4,7.3c4,2.1,8.1,3.9,12.4,5.5c4.3,1.5,8.6,2.7,13,3.6c4.4,0.9,8.9,1.4,13.4,1.6
			c4.5,0.2,9.1,0,13.5-0.4c4.5-0.5,8.9-1.4,13.3-2.5c8.7-2.4,17-6,24.6-10.9c3.8-2.4,7.4-5.1,10.8-8.1c3.4-3,6.6-6.2,9.4-9.6
			c2.9-3.5,5.5-7.1,7.8-11c2.3-3.9,4.3-7.9,6-12c3.4-8.3,5.5-17.2,6.2-26.1c0.1-1.1,0.2-2.2,0.2-3.4l0.1-3.4c0-2.2-0.2-4.5-0.4-6.7
			c-0.4-4.5-1.2-8.9-2.1-13.4c-1.9-8.8-4.9-17.4-9.3-25.2c-2.2-3.9-4.7-7.6-7.7-10.9c-1.5-1.6-3.1-3.2-4.7-4.7l-2.6-2.3l-2.6-2.1
			c-3.5-2.8-7.2-5.3-11.1-7.5c-3.9-2.2-8-4.1-12.2-6c-8.3-3.7-16.7-7.5-24.5-12.5c-0.5-0.3-0.9-0.7-1.4-1.1c-0.5-0.4-1-0.8-1.4-1.2
			l-1.3-1.2l-1.2-1.3c-1.6-1.7-3.1-3.5-4.4-5.3c-2.8-3.7-5.3-7.5-7.7-11.4l0,0l0.9-0.2c-0.2,3.1-0.6,6.2-1.4,9.2
			c-0.4,1.5-0.9,3-1.5,4.4c-0.7,1.4-1.4,2.8-2.5,4c-0.3,0.3-0.6,0.6-0.9,0.9c-0.2,0.1-0.3,0.3-0.5,0.4l-0.5,0.4
			c-0.6,0.5-1.2,0.9-1.9,1.4c-1.3,0.9-2.6,1.7-3.9,2.5l-7.9,4.7c-5.3,3.2-10.5,6.4-15.5,9.8c-2.5,1.7-5,3.6-7.4,5.4
			c-2.4,1.9-4.8,3.9-7.1,5.9c-2.4,2-4.6,4-6.9,6.1c-1.1,1-2.2,2.1-3.3,3.2l-3.1,3.4c-1,1.2-2,2.3-2.9,3.5c-0.9,1.2-1.8,2.5-2.7,3.7
			l-2.4,3.9l-2.2,4c-0.6,1.4-1.3,2.8-1.9,4.2c-0.6,1.4-1.1,2.9-1.6,4.3c-0.6,1.4-0.9,2.9-1.4,4.4c-0.4,1.5-0.9,2.9-1.1,4.4l-0.9,4.5
			l-0.6,4.5c-0.1,0.8-0.2,1.5-0.3,2.3l-0.3,2.3L32,136.8L32,136.8z M31,136.7l0.3-4.6l0.1-2.3c0.1-0.8,0.2-1.5,0.3-2.3l0.7-4.6
			l1-4.5c0.3-1.5,0.7-3,1.2-4.5c0.4-1.5,0.8-3,1.4-4.4c0.6-1.4,1-2.9,1.7-4.3c0.6-1.4,1.3-2.8,1.9-4.2l2.2-4.1l2.5-3.9
			c0.9-1.3,1.8-2.5,2.7-3.8c1-1.2,2-2.4,2.9-3.6l3.1-3.4c1.1-1.1,2.2-2.2,3.3-3.2c2.3-2.1,4.6-4.1,6.9-6.1c2.4-2,4.7-3.9,7.1-5.9
			c2.4-1.9,4.9-3.7,7.5-5.4c5.1-3.5,10.3-6.7,15.6-9.8l7.9-4.7c1.3-0.8,2.6-1.6,3.9-2.5c0.6-0.4,1.2-0.8,1.8-1.3l0.5-0.4
			c0.1-0.1,0.3-0.2,0.4-0.4c0.3-0.3,0.5-0.5,0.8-0.8c1-1.1,1.7-2.4,2.3-3.8c0.6-1.4,1.1-2.8,1.5-4.3c0.8-2.9,1.2-6,1.4-9l0.1-1.5
			l0.8,1.3l0,0c2.5,3.8,5.2,7.5,8,11c2.9,3.5,6,6.8,9.6,9.3l0.7,0.5c0.1,0.1,0.3,0.2,0.3,0.2l0.4,0.2l1.5,0.8c1,0.5,2,1.1,3,1.6
			l3,1.6l3.1,1.5c4.1,1.9,8.3,3.7,12.5,5.5c4.2,1.8,8.4,3.7,12.4,6c4,2.3,7.9,4.8,11.6,7.7l2.7,2.2l2.6,2.2c0.4,0.4,0.8,0.7,1.3,1.2
			l1.3,1.2c0.9,0.8,1.6,1.7,2.4,2.5c3.1,3.5,5.8,7.4,8,11.4c4.5,8.1,7.5,17,9.5,26c1,4.5,1.7,9.1,2.1,13.7c0.2,2.3,0.4,4.6,0.4,7
			l-0.1,3.5c0,1.2-0.2,2.3-0.2,3.5c-0.7,9.2-3,18.3-6.5,26.9c-1.8,4.3-3.9,8.4-6.3,12.4c-2.4,3.9-5.1,7.7-8.1,11.3
			c-3,3.6-6.2,6.8-9.7,9.9c-3.5,3.1-7.2,5.8-11.1,8.3c-7.8,5-16.4,8.7-25.3,11.1c-4.5,1.1-9,2-13.6,2.5c-4.6,0.4-9.2,0.6-13.8,0.4
			c-4.6-0.3-9.2-0.8-13.7-1.7c-4.5-0.9-9-2.2-13.3-3.7c-4.3-1.6-8.5-3.5-12.6-5.7c-4.1-2.2-7.9-4.7-11.6-7.5
			c-3.7-2.7-7.1-5.8-10.4-9.1c-3.2-3.3-6.2-6.8-8.8-10.6c-5.4-7.5-9.4-15.9-12.1-24.7c-1.3-4.4-2.1-8.9-2.7-13.5
			C30.8,145.9,31,141.3,31,136.7L31,136.7z"/>
	</g>
	<g>
		<path fill="#C9C5C1" d="M125.9,201.7c0,0,0.1,0.1,0.3,0.2c0.2,0.1,0.5,0.3,0.9,0.6c0.8,0.5,2,1.2,3.6,1.9c1.5,0.7,3.4,1.4,5.5,1.9
			c1,0.3,2.1,0.4,3.2,0.6c0.6,0.1,1.1,0.1,1.7,0.2l1.6,0.1l1.9,0c0.5,0,1.1-0.1,1.6-0.1c1.1-0.1,2.2-0.3,3.3-0.5
			c2.1-0.4,4-1.1,5.6-1.7c1.6-0.7,2.9-1.4,3.7-1.9c0.4-0.3,0.7-0.5,1-0.6c0.2-0.1,0.3-0.2,0.3-0.2l0.1-0.1c0.9-0.6,2.1-0.4,2.8,0.5
			c0.6,0.9,0.4,2-0.4,2.7c0,0-0.1,0.1-0.4,0.3c-0.3,0.2-0.6,0.5-1.1,0.8c-1,0.7-2.4,1.5-4.1,2.4c-1.8,0.9-3.9,1.7-6.3,2.4
			c-1.2,0.3-2.5,0.6-3.8,0.8c-0.7,0.1-1.4,0.2-2,0.2l-1.8,0l-0.2-0.1h-0.1h-0.2l-0.5,0.1l-1,0.1c-0.7,0-1.3,0-2-0.1
			c-1.3-0.1-2.6-0.2-3.8-0.5c-2.5-0.4-4.7-1.1-6.6-1.8c-1.9-0.7-3.4-1.5-4.5-2.1c-0.5-0.3-0.9-0.6-1.2-0.7c-0.3-0.2-0.5-0.3-0.5-0.3
			c-1.4-1-1.8-2.9-0.9-4.4s2.9-1.8,4.4-0.9C125.7,201.6,125.8,201.6,125.9,201.7L125.9,201.7z"/>
	</g>
	<path d="M154.7,162c0.1-1,15.7-35.4,30.1-36.8c21.1-2,26.8,12.1,24.4,23.9c-2.4,11.7-6.4,29.5-17.1,41.3
		c-10.7,11.8-29.3,2.5-33.5-5.5S154.1,172.5,154.7,162z"/>
	<path d="M95.4,112.8c0,0,17.9-8.8,30.7,5c10.9,11.7,17.8,33.2,33.4,25.5c7.5-3.7,18.3-19.2,30.8-18.3c19.3,1.4,15.7,57.6-4.6,57.8
		s-20.5,9.5-31.3,3.8S73.5,127.5,95.4,112.8z"/>
	<path d="M162.4,60.2c0,0,14.6-12.7,25.4-0.5c9.2,10.3,0.9,19,0.9,19S173.5,65.1,162.4,60.2z"/>
	<path d="M119,197.6c0,0,9.5-1.5,17.4-7.1c3.7-2.6,9.4-8.1,21.2-2.4c11.8,5.7,21.8,12.8,28.7,9.2c6.9-3.5,3.7-7.3,3.7-7.3
		s-6.5,4.2-15.2-1.5c-8.8-5.7-17.1-12-28-10.5s-23.1,13.4-26,14.6C117.8,193.8,119,197.6,119,197.6z"/>
	<g>
		<defs>
			<path id="SVGID_1_" d="M31.5,136.8C29,186,71.5,226,120.8,226s89.2-40,89.2-89.2c0,0-0.5-39.1-23.5-60.2
				C166.8,58.4,155.4,59.1,133,46c-8.6-5-18.5-21.5-18.5-21.5S114,38,108,43S83,57,68,69.5S33.5,97,31.5,136.8z"/>
		</defs>
		<clipPath id="SVGID_2_">
			<use xlink:href="#SVGID_1_"  overflow="visible"/>
		</clipPath>
		<path opacity="0.45" clip-path="url(#SVGID_2_)" fill="#C9C5C1" d="M114.5,24.5c0,0,1.8,7.9-1,15c-3.2,8.4-14.1,12.3-23.8,17.5
			C73.9,65.5,65,77.3,58.5,87.5c-24,37.8-7.5,76.1,7.7,102.5c20.7,36,57.2,37,84,32.6C186,216.7,64,250.3,45,224.7S7.3,119,18,96.7
			S116.2,29.2,114.5,24.5z"/>
	</g>
	<path d="M139.9,184.5c0,0,18.4,3.5,5.9-29.3c-12.5-32.8-23-49.8-45.8-47.2s-41.4,23.5-45.1,42.7c-3.7,18.9,4.6,43.6,28.6,47.6
		s43-1.1,48.5-6.8C137.5,185.8,139.9,184.5,139.9,184.5z"/>
	<path fill="#FFFFFF" d="M73,161.7c0,0-0.8,3.1-0.5,7.3c0.6,7.6,3,16.9,15.1,20.4c19.3,5.7,42-11.7,51.3-16
		c9.3-4.3,9.3-6.3,18.3-3.3s14,16.7,23.3,19c9.3,2.3,16.7-8.3,19-22c2.3-13.7-1-24-10-24.7c-9-0.7-26.3,16.3-33.3,17.3
		s-8.4,1-19.9-7S81.8,118,73,161.7z"/>
	<path opacity="0.4" fill="#C9C5C1" d="M150.8,189.4c0,0,2.3,0.1,2.3,3.2c0,2.2-3,5-3,5s-3.9-3.5-5.7-6.1S150.1,189.5,150.8,189.4z"
		/>
	<path d="M144.6,190c0,0,4-2,7.5,0c3.5,2-2,6.1-2,6.1S143.1,190,144.6,190z"/>
	<path d="M60,90.3c0,0-15.3-28.3,7-38.3s24.2,14.5,24.2,14.5S62.7,78.6,60,90.3z"/>
	<g>
		<defs>
			<path id="SVGID_3_" d="M73,161.7c0,0-0.8,3.1-0.5,7.3c0.6,7.6,3,16.9,15.1,20.4c19.3,5.7,42-11.7,51.3-16
				c9.3-4.3,9.3-6.3,18.3-3.3s14,16.7,23.3,19c9.3,2.3,16.7-8.3,19-22c2.3-13.7-1-24-10-24.7c-9-0.7-26.3,16.3-33.3,17.3
				s-8.4,1-19.9-7S81.8,118,73,161.7z"/>
		</defs>
		<clipPath id="SVGID_4_">
			<use xlink:href="#SVGID_3_"  overflow="visible"/>
		</clipPath>
		<path opacity="0.75" clip-path="url(#SVGID_4_)" fill="#C9C5C1" d="M124,184c0,0-22.9,13.5-36.4,5.3c-13.9-8.4-14-24.7-6-35.6
			c6.9-9.4,16.1-16.4,34-9.1c25.9,10.7,31.1,17.5,38.7,15.3c4.4-1.3,6.8-3.8,12.9-6.2c4.6-1.8,12.1-6.4,18.9-7.2
			c12.2-1.5,15.3,10.9,13.6,22.5c-1.7,12-7.5,17.4-13.9,18.1c-7.8,0.9-19.3-7.2-23.8-10.5s2.8,11.3,9.3,13.8
			c6.5,2.5,26.5,4,28.9-1.3s13.7-33.6,2.6-44.1c-11-10.5-14.5-13.7-24.8-7.7s-22.5,19.1-29.4,13.7c-6.9-5.4-35.4-24.2-54-19.5
			c-18.6,4.7-34.1,25.5-29.6,40.2s16.2,25.4,30.2,24.3C109.5,195,124,184,124,184z"/>
	</g>
</g>
</svg>
